<svg xmlns="http://www.w3.org/2000/svg" xmlns:xlink="http://www.w3.org/1999/xlink" contentStyleType="text/css" data-diagram-type="DESCRIPTION" height="491px" preserveAspectRatio="none" style="width:861px;height:491px;background:#FFFFFF;" version="1.1" viewBox="0 0 861 491" width="861px" zoomAndPan="magnify"><?plantuml 1.2026.3?><defs/><g><g class="title" data-source-line="2"><text fill="#000000" font-family="sans-serif" font-size="14" font-weight="700" lengthAdjust="spacing" textLength="379.2373" x="157.3813" y="22.9951">Rescue Video Analyzer - Backends de inferencia</text></g><!--cluster CUDA--><g class="cluster" data-qualified-name="CUDA" data-source-line="13" id="ent0003"><path d="M16.5,49.2969 L207.6143,49.2969 A3.75,3.75 0 0 1 210.1143,51.7969 L217.1143,71.5938 L271.5,71.5938 A2.5,2.5 0 0 1 274,74.0938 L274,404.7969 A2.5,2.5 0 0 1 271.5,407.2969 L16.5,407.2969 A2.5,2.5 0 0 1 14,404.7969 L14,51.7969 A2.5,2.5 0 0 1 16.5,49.2969" fill="none" style="stroke:#000000;stroke-width:1.5;"/><line style="stroke:#000000;stroke-width:1.5;" x1="14" x2="217.1143" y1="71.5938" y2="71.5938"/><text fill="#000000" font-family="sans-serif" font-size="14" font-weight="700" lengthAdjust="spacing" textLength="190.1143" x="18" y="64.292">Backend CUDA principal</text></g><!--cluster OPENCL--><g class="cluster" data-qualified-name="OPENCL" data-source-line="20" id="ent0008"><path d="M449.5,57.7969 L675.0264,57.7969 A3.75,3.75 0 0 1 677.5264,60.2969 L684.5264,80.0938 L690.5,80.0938 A2.5,2.5 0 0 1 693,82.5938 L693,404.7969 A2.5,2.5 0 0 1 690.5,407.2969 L449.5,407.2969 A2.5,2.5 0 0 1 447,404.7969 L447,60.2969 A2.5,2.5 0 0 1 449.5,57.7969" fill="none" style="stroke:#000000;stroke-width:1.5;"/><line style="stroke:#000000;stroke-width:1.5;" x1="447" x2="684.5264" y1="80.0938" y2="80.0938"/><text fill="#000000" font-family="sans-serif" font-size="14" font-weight="700" lengthAdjust="spacing" textLength="224.5264" x="451" y="72.792">Backend OpenCL alternativo</text></g><!--entity Worker--><g class="entity" data-qualified-name="Worker" data-source-line="11" id="ent0002"><rect fill="#F7FAFC" height="36.2969" rx="2.5" ry="2.5" style="stroke:#355070;stroke-width:0.5;" width="109.6738" x="281" y="454.2969"/><text fill="#000000" font-family="sans-serif" font-size="14" lengthAdjust="spacing" textLength="89.6738" x="291" y="477.292">run_worker()</text></g><!--entity BindCuda--><g class="entity" data-qualified-name="CUDA.BindCuda" data-source-line="14" id="ent0004"><rect fill="#F7FAFC" height="52.5938" rx="2.5" ry="2.5" style="stroke:#355070;stroke-width:0.5;" width="243.4258" x="22.5" y="76.2969"/><text fill="#000000" font-family="sans-serif" font-size="14" lengthAdjust="spacing" textLength="197.4766" x="32.5" y="99.292">activate_worker_gpu_cuda()</text><text fill="#000000" font-family="sans-serif" font-size="14" lengthAdjust="spacing" textLength="223.4258" x="32.5" y="115.5889">seleccion por local_worker_rank</text></g><!--entity PreCuda--><g class="entity" data-qualified-name="CUDA.PreCuda" data-source-line="15" id="ent0005"><rect fill="#F7FAFC" height="52.5938" rx="2.5" ry="2.5" style="stroke:#355070;stroke-width:0.5;" width="197.8369" x="28" y="166.2969"/><text fill="#000000" font-family="sans-serif" font-size="14" lengthAdjust="spacing" textLength="177.8369" x="38" y="189.292">preprocess_frame_cuda()</text><text fill="#000000" font-family="sans-serif" font-size="14" lengthAdjust="spacing" textLength="95.9766" x="38" y="205.5889">kernels CUDA</text></g><!--entity DetCuda--><g class="entity" data-qualified-name="CUDA.DetCuda" data-source-line="16" id="ent0006"><rect fill="#F7FAFC" height="52.5938" rx="2.5" ry="2.5" style="stroke:#355070;stroke-width:0.5;" width="169.9395" x="52" y="346.2969"/><text fill="#000000" font-family="sans-serif" font-size="14" lengthAdjust="spacing" textLength="144.1289" x="62" y="369.292">CudaPeopleDetector</text><text fill="#000000" font-family="sans-serif" font-size="14" lengthAdjust="spacing" textLength="149.9395" x="62" y="385.5889">ONNX Runtime CUDA</text></g><!--entity Vram--><g class="entity" data-qualified-name="CUDA.Vram" data-source-line="17" id="ent0007"><rect fill="#F7FAFC" height="52.5938" rx="2.5" ry="2.5" style="stroke:#355070;stroke-width:0.5;" width="113.6592" x="78" y="256.2969"/><text fill="#000000" font-family="sans-serif" font-size="14" lengthAdjust="spacing" textLength="74.9492" x="88" y="279.292">GPU VRAM</text><text fill="#000000" font-family="sans-serif" font-size="14" lengthAdjust="spacing" textLength="93.6592" x="88" y="295.5889">tensor NCHW</text></g><!--entity BindOpenCL--><g class="entity" data-qualified-name="OPENCL.BindOpenCL" data-source-line="21" id="ent0009"><rect fill="#F7FAFC" height="36.2969" rx="2.5" ry="2.5" style="stroke:#355070;stroke-width:0.5;" width="229.9658" x="455" y="84.7969"/><text fill="#000000" font-family="sans-serif" font-size="14" lengthAdjust="spacing" textLength="209.9658" x="465" y="107.792">activate_worker_gpu_opencl()</text></g><!--entity PreOpenCL--><g class="entity" data-qualified-name="OPENCL.PreOpenCL" data-source-line="22" id="ent0010"><rect fill="#F7FAFC" height="52.5938" rx="2.5" ry="2.5" style="stroke:#355070;stroke-width:0.5;" width="210.3262" x="455" y="166.2969"/><text fill="#000000" font-family="sans-serif" font-size="14" lengthAdjust="spacing" textLength="190.3262" x="465" y="189.292">preprocess_frame_opencl()</text><text fill="#000000" font-family="sans-serif" font-size="14" lengthAdjust="spacing" textLength="97.5898" x="465" y="205.5889">OpenCV UMat</text></g><!--entity DetOpenCL--><g class="entity" data-qualified-name="OPENCL.DetOpenCL" data-source-line="23" id="ent0011"><rect fill="#F7FAFC" height="52.5938" rx="2.5" ry="2.5" style="stroke:#355070;stroke-width:0.5;" width="182.9824" x="456.5" y="346.2969"/><text fill="#000000" font-family="sans-serif" font-size="14" lengthAdjust="spacing" textLength="162.9824" x="466.5" y="369.292">OpenCLPeopleDetector</text><text fill="#000000" font-family="sans-serif" font-size="14" lengthAdjust="spacing" textLength="92.9209" x="466.5" y="385.5889">OpenCV DNN</text></g><!--entity UMat--><g class="entity" data-qualified-name="OPENCL.UMat" data-source-line="24" id="ent0012"><rect fill="#F7FAFC" height="52.5938" rx="2.5" ry="2.5" style="stroke:#355070;stroke-width:0.5;" width="149.7666" x="477" y="256.2969"/><text fill="#000000" font-family="sans-serif" font-size="14" lengthAdjust="spacing" textLength="129.7666" x="487" y="279.292">Memoria unificada</text><text fill="#000000" font-family="sans-serif" font-size="14" lengthAdjust="spacing" textLength="36.3945" x="487" y="295.5889">UMat</text></g><g class="link" data-entity-1="ent0002" data-entity-2="ent0004" data-link-type="dependency" id="lnk13"><polygon fill="#355070" points="208.3057,129.4391,214.0357,137.4496,212.6156,131.9739,218.0913,130.5538,208.3057,129.4391" style="stroke:#355070;stroke-width:1;"/><path d="M308.2385,454.0823 C284.4497,436.9583 254,408.3005 254,373.7969 C254,191.7969 254,191.7969 254,191.7969 C254,164.0389 237.5494,146.6382 213.4776,132.4808" fill="none" style="stroke:#355070;stroke-width:1;"/><text fill="#000000" font-family="sans-serif" font-size="13" lengthAdjust="spacing" textLength="129.9365" x="281.5969" y="279.8638">--gpu-backend cuda</text><text fill="#000000" font-family="sans-serif" font-size="13" lengthAdjust="spacing" textLength="181.1304" x="256" y="294.9966">o auto con CUDA disponible</text></g><g class="link" data-entity-1="ent0004" data-entity-2="ent0005" data-link-type="dependency" id="lnk14"><polygon fill="#355070" points="131.9728,166.0552,137.6073,157.9773,132.9212,161.146,129.7525,156.4599,131.9728,166.0552" style="stroke:#355070;stroke-width:1;"/><path d="M138.9914,129.7238 C136.7779,141.1818 135.3202,148.7277 133.1109,160.1642" fill="none" style="stroke:#355070;stroke-width:1;"/></g><g class="link" data-entity-1="ent0005" data-entity-2="ent0007" data-link-type="dependency" id="lnk15"><polygon fill="#355070" points="132.6599,256.0552,135.8286,246.7301,132.2072,251.0758,127.8615,247.4543,132.6599,256.0552" style="stroke:#355070;stroke-width:1;"/><path d="M129.357,219.7238 C130.3986,231.1818 131.077,238.6434 132.1166,250.0799" fill="none" style="stroke:#355070;stroke-width:1;"/></g><g class="link" data-entity-1="ent0007" data-entity-2="ent0006" data-link-type="dependency" id="lnk16"><polygon fill="#355070" points="136.415,346.0552,140.2094,336.9667,136.3014,341.0565,132.2115,337.1485,136.415,346.0552" style="stroke:#355070;stroke-width:1;"/><path d="M135.5892,309.7238 C135.8497,321.1818 136.0187,328.6203 136.2786,340.0568" fill="none" style="stroke:#355070;stroke-width:1;"/></g><g class="link" data-entity-1="ent0002" data-entity-2="ent0009" data-link-type="dependency" id="lnk17"><polygon fill="#355070" points="627.5386,120.8839,634.2894,128.0552,632.149,122.8189,637.3853,120.6785,627.5386,120.8839" style="stroke:#355070;stroke-width:1;"/><path d="M391.3895,467.6591 C491.6642,459.5426 693,435.5563 693,373.7969 C693,191.7969 693,191.7969 693,191.7969 C693,156.7443 665.0831,136.6411 633.0711,123.2059" fill="none" style="stroke:#355070;stroke-width:1;"/><text fill="#000000" font-family="sans-serif" font-size="13" lengthAdjust="spacing" textLength="141.5337" x="706.9209" y="279.8638">--gpu-backend opencl</text><text fill="#000000" font-family="sans-serif" font-size="13" lengthAdjust="spacing" textLength="165.3755" x="695" y="294.9966">o GPU OpenCL disponible</text></g><g class="link" data-entity-1="ent0009" data-entity-2="ent0010" data-link-type="dependency" id="lnk18"><polygon fill="#355070" points="562.9193,166.1071,567.9099,157.6163,563.4838,161.139,559.9611,156.713,562.9193,166.1071" style="stroke:#355070;stroke-width:1;"/><path d="M568.0243,121.1828 C566.5672,134.0058 565.2385,145.6977 563.5968,160.1454" fill="none" style="stroke:#355070;stroke-width:1;"/></g><g class="link" data-entity-1="ent0010" data-entity-2="ent0012" data-link-type="dependency" id="lnk19"><polygon fill="#355070" points="554.3401,256.0552,559.1385,247.4543,554.7928,251.0758,551.1714,246.7301,554.3401,256.0552" style="stroke:#355070;stroke-width:1;"/><path d="M557.643,219.7238 C556.6014,231.1818 555.923,238.6434 554.8834,250.0799" fill="none" style="stroke:#355070;stroke-width:1;"/></g><g class="link" data-entity-1="ent0012" data-entity-2="ent0011" data-link-type="dependency" id="lnk20"><polygon fill="#355070" points="549.1701,346.0552,553.5746,337.2462,549.3971,341.0604,545.5829,336.8829,549.1701,346.0552" style="stroke:#355070;stroke-width:1;"/><path d="M550.8215,309.7238 C550.3007,321.1818 549.9624,328.625 549.4425,340.0614" fill="none" style="stroke:#355070;stroke-width:1;"/></g><g class="link" data-entity-1="ent0006" data-entity-2="ent0002" data-link-type="dependency" id="lnk21"><polygon fill="#355070" points="280.855,469.0552,272.1351,464.4766,275.8657,468.729,271.6133,472.4596,280.855,469.0552" style="stroke:#355070;stroke-width:1;"/><path d="M130.9096,399.3217 C129.4859,411.8589 130.4029,426.3648 139,436.2969 C157.1305,457.2427 223.1544,465.2832 274.8678,468.6638" fill="none" style="stroke:#355070;stroke-width:1;"/><text fill="#000000" font-family="sans-serif" font-size="13" lengthAdjust="spacing" textLength="97.8618" x="141" y="431.3638">DetectionBox[]</text></g><g class="link" data-entity-1="ent0011" data-entity-2="ent0002" data-link-type="dependency" id="lnk22"><polygon fill="#355070" points="372.992,454.2841,382.84,454.1576,377.5346,452.1949,379.4973,446.8895,372.992,454.2841" style="stroke:#355070;stroke-width:1;"/><path d="M492.2995,399.4139 C454.6369,416.7351 411.3965,436.6216 378.4431,451.7771" fill="none" style="stroke:#355070;stroke-width:1;"/><text fill="#000000" font-family="sans-serif" font-size="13" lengthAdjust="spacing" textLength="97.8618" x="451" y="431.3638">DetectionBox[]</text></g><?plantuml-src ZLDDZzCm4BtdLmpbidkej19QhRG7f3QbSA0VAceNYQ9gwao3LSUER8TI4Fzz9uuJIbknv934u_VUFBz9NfKMym91uT5K7bn17ZKcNdf5i20dAeALpCZ0GACw_YGBVHYYs9FE76G4Kk_8aXOIayJjfIxHOW5RHkJML3fBZJ8MNe_3TO8GfYYD9kq_-IEtiYIuSQxe1EA-OMOEKkUmG-LETmRMcaDKVdD_V_TmTxAPjif3OpEoByCkl3wC1-CqIJgBqBELtXoCtPEzkUq1EdWAYoGfcOmvGIzc0kboD83IIawaH1MmeVGh0JWHHE7bT_GKLJTvMMr4bU7DxLexKYI4D1fAjgECGDN2BEfzq1nAjilulrLBIwKrWfpRxFYCr4aoLvDgh0J-tD8blQxCoPIAHkHv8CQkzMmw_GoBIdjPq1ywxr_Ity-Ni5eC9cljIJksFaq_F0NuYiqalw-aDIj9fny1bMU3o96OW9_Dtqsv_1-P6HOGAWwb3gLHV26MbiN7g-4hM4xGjxbSKsXg5zaqvD5qsePoZJkXmbY9K6cvam8pNEkkNVrI1zDyJj3ll-qc2u-yv2Fsjp6hUfPhRG0hRrXVDzzL9Xqtabl-SpfcBTCEE3v3BOoXleLLEyFpvd4cv-sRp6e3zPmZwAnxhCR-COpkBTJ3YUjRwo6YacWdbAEZHsYovbzXQ7vy-Pfqy7-XdW40?></g></svg>