<svg xmlns="http://www.w3.org/2000/svg" xmlns:xlink="http://www.w3.org/1999/xlink" contentStyleType="text/css" data-diagram-type="CLASS" height="930px" preserveAspectRatio="none" style="width:568px;height:930px;background:#FFFFFF;" version="1.1" viewBox="0 0 568 930" width="568px" zoomAndPan="magnify"><?plantuml 1.2026.3?><defs/><g><g class="title" data-source-line="2"><text fill="#000000" font-family="sans-serif" font-size="14" font-weight="700" lengthAdjust="spacing" textLength="314.9316" x="123.2842" y="22.9951">Rescue Video Analyzer - Datos y salidas</text></g><!--class AppConfig--><g class="entity" data-qualified-name="AppConfig" data-source-line="11" id="ent0002"><rect fill="#F7FAFC" height="210.9688" rx="2.5" ry="2.5" style="stroke:#355070;stroke-width:0.5;" width="139.3809" x="174" y="49.2969"/><ellipse cx="204.8001" cy="65.2969" fill="#ADD1B2" rx="11" ry="11" style="stroke:#181818;stroke-width:1;"/><path d="M207.7688,70.9375 Q207.1907,71.2344 206.5501,71.375 Q205.9095,71.5313 205.2063,71.5313 Q202.7063,71.5313 201.3782,69.8906 Q200.0657,68.2344 200.0657,65.1094 Q200.0657,61.9844 201.3782,60.3281 Q202.7063,58.6719 205.2063,58.6719 Q205.9095,58.6719 206.5501,58.8281 Q207.2063,58.9844 207.7688,59.2813 L207.7688,62 Q207.1438,61.4219 206.5501,61.1563 Q205.9563,60.875 205.3313,60.875 Q203.9876,60.875 203.3001,61.9531 Q202.6126,63.0156 202.6126,65.1094 Q202.6126,67.2031 203.3001,68.2813 Q203.9876,69.3438 205.3313,69.3438 Q205.9563,69.3438 206.5501,69.0781 Q207.1438,68.7969 207.7688,68.2188 L207.7688,70.9375 Z " fill="#000000"/><text fill="#000000" font-family="sans-serif" font-size="14" lengthAdjust="spacing" textLength="72.2695" x="222.3112" y="70.1436">AppConfig</text><line style="stroke:#355070;stroke-width:0.5;" x1="175" x2="312.3809" y1="81.2969" y2="81.2969"/><text fill="#000000" font-family="sans-serif" font-size="14" lengthAdjust="spacing" textLength="74.8398" x="180" y="98.292">input_path</text><text fill="#000000" font-family="sans-serif" font-size="14" lengthAdjust="spacing" textLength="71.709" x="180" y="114.5889">output_dir</text><text fill="#000000" font-family="sans-serif" font-size="14" lengthAdjust="spacing" textLength="73.6709" x="180" y="130.8857">batch_size</text><text fill="#000000" font-family="sans-serif" font-size="14" lengthAdjust="spacing" textLength="93.29" x="180" y="147.1826">gpu_backend</text><text fill="#000000" font-family="sans-serif" font-size="14" lengthAdjust="spacing" textLength="99.4082" x="180" y="163.4795">gpu_device_id</text><text fill="#000000" font-family="sans-serif" font-size="14" lengthAdjust="spacing" textLength="87.1035" x="180" y="179.7764">resize_width</text><text fill="#000000" font-family="sans-serif" font-size="14" lengthAdjust="spacing" textLength="121.3447" x="180" y="196.0732">processing_width</text><text fill="#000000" font-family="sans-serif" font-size="14" lengthAdjust="spacing" textLength="127.3809" x="180" y="212.3701">processing_height</text><text fill="#000000" font-family="sans-serif" font-size="14" lengthAdjust="spacing" textLength="115.1992" x="180" y="228.667">scheduler_mode</text><text fill="#000000" font-family="sans-serif" font-size="14" lengthAdjust="spacing" textLength="73.5342" x="180" y="244.9639">thresholds</text><line style="stroke:#355070;stroke-width:0.5;" x1="175" x2="312.3809" y1="252.2656" y2="252.2656"/></g><!--class BatchHeader--><g class="entity" data-qualified-name="BatchHeader" data-source-line="24" id="ent0003"><rect fill="#F7FAFC" height="162.0781" rx="2.5" ry="2.5" style="stroke:#355070;stroke-width:0.5;" width="139.3809" x="174" y="315.2969"/><ellipse cx="196.2729" cy="331.2969" fill="#ADD1B2" rx="11" ry="11" style="stroke:#181818;stroke-width:1;"/><path d="M199.2417,336.9375 Q198.6636,337.2344 198.0229,337.375 Q197.3823,337.5313 196.6792,337.5313 Q194.1792,337.5313 192.8511,335.8906 Q191.5386,334.2344 191.5386,331.1094 Q191.5386,327.9844 192.8511,326.3281 Q194.1792,324.6719 196.6792,324.6719 Q197.3823,324.6719 198.0229,324.8281 Q198.6792,324.9844 199.2417,325.2813 L199.2417,328 Q198.6167,327.4219 198.0229,327.1563 Q197.4292,326.875 196.8042,326.875 Q195.4604,326.875 194.7729,327.9531 Q194.0854,329.0156 194.0854,331.1094 Q194.0854,333.2031 194.7729,334.2813 Q195.4604,335.3438 196.8042,335.3438 Q197.4292,335.3438 198.0229,335.0781 Q198.6167,334.7969 199.2417,334.2188 L199.2417,336.9375 Z " fill="#000000"/><text fill="#000000" font-family="sans-serif" font-size="14" lengthAdjust="spacing" textLength="91.2188" x="211.8892" y="336.1436">BatchHeader</text><line style="stroke:#355070;stroke-width:0.5;" x1="175" x2="312.3809" y1="347.2969" y2="347.2969"/><text fill="#000000" font-family="sans-serif" font-size="14" lengthAdjust="spacing" textLength="81.1221" x="180" y="364.292">start_frame</text><text fill="#000000" font-family="sans-serif" font-size="14" lengthAdjust="spacing" textLength="88.0127" x="180" y="380.5889">frame_count</text><text fill="#000000" font-family="sans-serif" font-size="14" lengthAdjust="spacing" textLength="87.1035" x="180" y="396.8857">frame_width</text><text fill="#000000" font-family="sans-serif" font-size="14" lengthAdjust="spacing" textLength="93.1396" x="180" y="413.1826">frame_height</text><text fill="#000000" font-family="sans-serif" font-size="14" lengthAdjust="spacing" textLength="121.3447" x="180" y="429.4795">processing_width</text><text fill="#000000" font-family="sans-serif" font-size="14" lengthAdjust="spacing" textLength="127.3809" x="180" y="445.7764">processing_height</text><text fill="#000000" font-family="sans-serif" font-size="14" lengthAdjust="spacing" textLength="21.1094" x="180" y="462.0732">fps</text><line style="stroke:#355070;stroke-width:0.5;" x1="175" x2="312.3809" y1="469.375" y2="469.375"/></g><!--class FramePacket--><g class="entity" data-qualified-name="FramePacket" data-source-line="34" id="ent0004"><rect fill="#F7FAFC" height="96.8906" rx="2.5" ry="2.5" style="stroke:#355070;stroke-width:0.5;" width="221.9727" x="132.5" y="532.2969"/><ellipse cx="193.4526" cy="548.2969" fill="#ADD1B2" rx="11" ry="11" style="stroke:#181818;stroke-width:1;"/><path d="M196.4214,553.9375 Q195.8433,554.2344 195.2026,554.375 Q194.562,554.5313 193.8589,554.5313 Q191.3589,554.5313 190.0308,552.8906 Q188.7183,551.2344 188.7183,548.1094 Q188.7183,544.9844 190.0308,543.3281 Q191.3589,541.6719 193.8589,541.6719 Q194.562,541.6719 195.2026,541.8281 Q195.8589,541.9844 196.4214,542.2813 L196.4214,545 Q195.7964,544.4219 195.2026,544.1563 Q194.6089,543.875 193.9839,543.875 Q192.6401,543.875 191.9526,544.9531 Q191.2651,546.0156 191.2651,548.1094 Q191.2651,550.2031 191.9526,551.2813 Q192.6401,552.3438 193.9839,552.3438 Q194.6089,552.3438 195.2026,552.0781 Q195.7964,551.7969 196.4214,551.2188 L196.4214,553.9375 Z " fill="#000000"/><text fill="#000000" font-family="sans-serif" font-size="14" lengthAdjust="spacing" textLength="91.5674" x="213.9526" y="553.1436">FramePacket</text><line style="stroke:#355070;stroke-width:0.5;" x1="133.5" x2="353.4727" y1="564.2969" y2="564.2969"/><text fill="#000000" font-family="sans-serif" font-size="14" lengthAdjust="spacing" textLength="132.8906" x="138.5" y="581.292">FrameResult result</text><text fill="#000000" font-family="sans-serif" font-size="14" lengthAdjust="spacing" textLength="112.6152" x="138.5" y="597.5889">detection_count</text><text fill="#000000" font-family="sans-serif" font-size="14" lengthAdjust="spacing" textLength="209.9727" x="138.5" y="613.8857">DetectionBox[128] detections</text><line style="stroke:#355070;stroke-width:0.5;" x1="133.5" x2="353.4727" y1="621.1875" y2="621.1875"/></g><!--class FrameResult--><g class="entity" data-qualified-name="FrameResult" data-source-line="40" id="ent0005"><rect fill="#F7FAFC" height="178.375" rx="2.5" ry="2.5" style="stroke:#355070;stroke-width:0.5;" width="120.5254" x="113" y="666.2969"/><ellipse cx="128" cy="682.2969" fill="#ADD1B2" rx="11" ry="11" style="stroke:#181818;stroke-width:1;"/><path d="M130.9688,687.9375 Q130.3906,688.2344 129.75,688.375 Q129.1094,688.5313 128.4063,688.5313 Q125.9063,688.5313 124.5781,686.8906 Q123.2656,685.2344 123.2656,682.1094 Q123.2656,678.9844 124.5781,677.3281 Q125.9063,675.6719 128.4063,675.6719 Q129.1094,675.6719 129.75,675.8281 Q130.4063,675.9844 130.9688,676.2813 L130.9688,679 Q130.3438,678.4219 129.75,678.1563 Q129.1563,677.875 128.5313,677.875 Q127.1875,677.875 126.5,678.9531 Q125.8125,680.0156 125.8125,682.1094 Q125.8125,684.2031 126.5,685.2813 Q127.1875,686.3438 128.5313,686.3438 Q129.1563,686.3438 129.75,686.0781 Q130.3438,685.7969 130.9688,685.2188 L130.9688,687.9375 Z " fill="#000000"/><text fill="#000000" font-family="sans-serif" font-size="14" lengthAdjust="spacing" textLength="88.5254" x="142" y="687.1436">FrameResult</text><line style="stroke:#355070;stroke-width:0.5;" x1="114" x2="232.5254" y1="698.2969" y2="698.2969"/><text fill="#000000" font-family="sans-serif" font-size="14" lengthAdjust="spacing" textLength="87.0625" x="119" y="715.292">frame_index</text><text fill="#000000" font-family="sans-serif" font-size="14" lengthAdjust="spacing" textLength="86.5635" x="119" y="731.5889">worker_rank</text><text fill="#000000" font-family="sans-serif" font-size="14" lengthAdjust="spacing" textLength="99.4082" x="119" y="747.8857">gpu_device_id</text><text fill="#000000" font-family="sans-serif" font-size="14" lengthAdjust="spacing" textLength="93.9531" x="119" y="764.1826">people_count</text><text fill="#000000" font-family="sans-serif" font-size="14" lengthAdjust="spacing" textLength="59.7666" x="119" y="780.4795">read_ms</text><text fill="#000000" font-family="sans-serif" font-size="14" lengthAdjust="spacing" textLength="105.2939" x="119" y="796.7764">preprocess_ms</text><text fill="#000000" font-family="sans-serif" font-size="14" lengthAdjust="spacing" textLength="94.0488" x="119" y="813.0732">detection_ms</text><text fill="#000000" font-family="sans-serif" font-size="14" lengthAdjust="spacing" textLength="103.6875" x="119" y="829.3701">processing_ms</text><line style="stroke:#355070;stroke-width:0.5;" x1="114" x2="232.5254" y1="836.6719" y2="836.6719"/></g><!--class DetectionBox--><g class="entity" data-qualified-name="DetectionBox" data-source-line="51" id="ent0006"><rect fill="#F7FAFC" height="145.7813" rx="2.5" ry="2.5" style="stroke:#355070;stroke-width:0.5;" width="126.4658" x="252.5" y="682.2969"/><ellipse cx="267.5" cy="698.2969" fill="#ADD1B2" rx="11" ry="11" style="stroke:#181818;stroke-width:1;"/><path d="M270.4688,703.9375 Q269.8906,704.2344 269.25,704.375 Q268.6094,704.5313 267.9063,704.5313 Q265.4063,704.5313 264.0781,702.8906 Q262.7656,701.2344 262.7656,698.1094 Q262.7656,694.9844 264.0781,693.3281 Q265.4063,691.6719 267.9063,691.6719 Q268.6094,691.6719 269.25,691.8281 Q269.9063,691.9844 270.4688,692.2813 L270.4688,695 Q269.8438,694.4219 269.25,694.1563 Q268.6563,693.875 268.0313,693.875 Q266.6875,693.875 266,694.9531 Q265.3125,696.0156 265.3125,698.1094 Q265.3125,700.2031 266,701.2813 Q266.6875,702.3438 268.0313,702.3438 Q268.6563,702.3438 269.25,702.0781 Q269.8438,701.7969 270.4688,701.2188 L270.4688,703.9375 Z " fill="#000000"/><text fill="#000000" font-family="sans-serif" font-size="14" lengthAdjust="spacing" textLength="94.4658" x="281.5" y="703.1436">DetectionBox</text><line style="stroke:#355070;stroke-width:0.5;" x1="253.5" x2="377.9658" y1="714.2969" y2="714.2969"/><text fill="#000000" font-family="sans-serif" font-size="14" lengthAdjust="spacing" textLength="8.2852" x="258.5" y="731.292">x</text><text fill="#000000" font-family="sans-serif" font-size="14" lengthAdjust="spacing" textLength="8.2852" x="258.5" y="747.5889">y</text><text fill="#000000" font-family="sans-serif" font-size="14" lengthAdjust="spacing" textLength="38.5889" x="258.5" y="763.8857">width</text><text fill="#000000" font-family="sans-serif" font-size="14" lengthAdjust="spacing" textLength="44.625" x="258.5" y="780.1826">height</text><text fill="#000000" font-family="sans-serif" font-size="14" lengthAdjust="spacing" textLength="76.6377" x="258.5" y="796.4795">confidence</text><text fill="#000000" font-family="sans-serif" font-size="14" lengthAdjust="spacing" textLength="54.5303" x="258.5" y="812.7764">class_id</text><line style="stroke:#355070;stroke-width:0.5;" x1="253.5" x2="377.9658" y1="820.0781" y2="820.0781"/></g><!--class CSV--><g class="entity" data-qualified-name="CSV" data-source-line="60" id="ent0007"><rect fill="#F7FAFC" height="48" rx="2.5" ry="2.5" style="stroke:#355070;stroke-width:0.5;" width="155.4502" x="6" y="881.2969"/><ellipse cx="21" cy="897.2969" fill="#ADD1B2" rx="11" ry="11" style="stroke:#181818;stroke-width:1;"/><path d="M23.9688,902.9375 Q23.3906,903.2344 22.75,903.375 Q22.1094,903.5313 21.4063,903.5313 Q18.9063,903.5313 17.5781,901.8906 Q16.2656,900.2344 16.2656,897.1094 Q16.2656,893.9844 17.5781,892.3281 Q18.9063,890.6719 21.4063,890.6719 Q22.1094,890.6719 22.75,890.8281 Q23.4063,890.9844 23.9688,891.2813 L23.9688,894 Q23.3438,893.4219 22.75,893.1563 Q22.1563,892.875 21.5313,892.875 Q20.1875,892.875 19.5,893.9531 Q18.8125,895.0156 18.8125,897.1094 Q18.8125,899.2031 19.5,900.2813 Q20.1875,901.3438 21.5313,901.3438 Q22.1563,901.3438 22.75,901.0781 Q23.3438,900.7969 23.9688,900.2188 L23.9688,902.9375 Z " fill="#000000"/><text fill="#000000" font-family="sans-serif" font-size="14" lengthAdjust="spacing" textLength="123.4502" x="35" y="902.1436">frame_results.csv</text><line style="stroke:#355070;stroke-width:0.5;" x1="7" x2="160.4502" y1="913.2969" y2="913.2969"/><line style="stroke:#355070;stroke-width:0.5;" x1="7" x2="160.4502" y1="921.2969" y2="921.2969"/></g><!--class JSON--><g class="entity" data-qualified-name="JSON" data-source-line="61" id="ent0008"><rect fill="#F7FAFC" height="48" rx="2.5" ry="2.5" style="stroke:#355070;stroke-width:0.5;" width="131.1348" x="179" y="881.2969"/><ellipse cx="194" cy="897.2969" fill="#ADD1B2" rx="11" ry="11" style="stroke:#181818;stroke-width:1;"/><path d="M196.9688,902.9375 Q196.3906,903.2344 195.75,903.375 Q195.1094,903.5313 194.4063,903.5313 Q191.9063,903.5313 190.5781,901.8906 Q189.2656,900.2344 189.2656,897.1094 Q189.2656,893.9844 190.5781,892.3281 Q191.9063,890.6719 194.4063,890.6719 Q195.1094,890.6719 195.75,890.8281 Q196.4063,890.9844 196.9688,891.2813 L196.9688,894 Q196.3438,893.4219 195.75,893.1563 Q195.1563,892.875 194.5313,892.875 Q193.1875,892.875 192.5,893.9531 Q191.8125,895.0156 191.8125,897.1094 Q191.8125,899.2031 192.5,900.2813 Q193.1875,901.3438 194.5313,901.3438 Q195.1563,901.3438 195.75,901.0781 Q196.3438,900.7969 196.9688,900.2188 L196.9688,902.9375 Z " fill="#000000"/><text fill="#000000" font-family="sans-serif" font-size="14" lengthAdjust="spacing" textLength="99.1348" x="208" y="902.1436">summary.json</text><line style="stroke:#355070;stroke-width:0.5;" x1="180" x2="309.1348" y1="913.2969" y2="913.2969"/><line style="stroke:#355070;stroke-width:0.5;" x1="180" x2="309.1348" y1="921.2969" y2="921.2969"/></g><!--class Video--><g class="entity" data-qualified-name="Video" data-source-line="62" id="ent0009"><rect fill="#F7FAFC" height="48" rx="2.5" ry="2.5" style="stroke:#355070;stroke-width:0.5;" width="224.2061" x="328.5" y="881.2969"/><ellipse cx="343.5" cy="897.2969" fill="#ADD1B2" rx="11" ry="11" style="stroke:#181818;stroke-width:1;"/><path d="M346.4688,902.9375 Q345.8906,903.2344 345.25,903.375 Q344.6094,903.5313 343.9063,903.5313 Q341.4063,903.5313 340.0781,901.8906 Q338.7656,900.2344 338.7656,897.1094 Q338.7656,893.9844 340.0781,892.3281 Q341.4063,890.6719 343.9063,890.6719 Q344.6094,890.6719 345.25,890.8281 Q345.9063,890.9844 346.4688,891.2813 L346.4688,894 Q345.8438,893.4219 345.25,893.1563 Q344.6563,892.875 344.0313,892.875 Q342.6875,892.875 342,893.9531 Q341.3125,895.0156 341.3125,897.1094 Q341.3125,899.2031 342,900.2813 Q342.6875,901.3438 344.0313,901.3438 Q344.6563,901.3438 345.25,901.0781 Q345.8438,900.7969 346.4688,900.2188 L346.4688,902.9375 Z " fill="#000000"/><text fill="#000000" font-family="sans-serif" font-size="14" lengthAdjust="spacing" textLength="192.2061" x="357.5" y="902.1436">annotated_people.mp4/.avi</text><line style="stroke:#355070;stroke-width:0.5;" x1="329.5" x2="551.7061" y1="913.2969" y2="913.2969"/><line style="stroke:#355070;stroke-width:0.5;" x1="329.5" x2="551.7061" y1="921.2969" y2="921.2969"/></g><g class="link" data-entity-1="ent0002" data-entity-2="ent0003" data-link-type="dependency" id="lnk10"><polygon fill="#355070" points="243.5,314.9398,247.5,305.9398,243.5,309.9398,239.5,305.9398,243.5,314.9398" style="stroke:#355070;stroke-width:1;"/><path d="M243.5,260.4966 C243.5,278.7479 243.5,291.473 243.5,308.9398" fill="none" style="stroke:#355070;stroke-width:1;"/><text fill="#000000" font-family="sans-serif" font-size="13" lengthAdjust="spacing" textLength="96.897" x="245.5" y="292.3638">configura lotes</text></g><g class="link" data-entity-1="ent0003" data-entity-2="ent0004" data-link-type="dependency" id="lnk11"><polygon fill="#355070" points="243.5,532.0846,247.5,523.0846,243.5,527.0846,239.5,523.0846,243.5,532.0846" style="stroke:#355070;stroke-width:1;"/><path d="M243.5,477.344 C243.5,496.0197 243.5,509.3309 243.5,526.0846" fill="none" style="stroke:#355070;stroke-width:1;"/><text fill="#000000" font-family="sans-serif" font-size="13" lengthAdjust="spacing" textLength="125.3281" x="245.5" y="509.3638">produce resultados</text></g><g class="link" data-entity-1="ent0004" data-entity-2="ent0005" data-link-type="composition" id="lnk12"><polygon fill="#355070" points="224.1869,629.3899,218.2243,633.4455,219.6747,640.5092,225.6372,636.4536,224.1869,629.3899" style="stroke:#355070;stroke-width:1;"/><path d="M219.6747,640.5092 C215.0209,651.9776 214.4127,653.4762 209.2702,666.1489" fill="none" style="stroke:#355070;stroke-width:1;"/></g><g class="link" data-entity-1="ent0004" data-entity-2="ent0006" data-link-type="composition" id="lnk13"><polygon fill="#355070" points="263.3649,629.3899,261.9847,636.4677,267.9871,640.464,269.3674,633.3862,263.3649,629.3899" style="stroke:#355070;stroke-width:1;"/><path d="M267.9871,640.464 C274.8135,656.8188 277.9936,664.4377 285.4462,682.293" fill="none" style="stroke:#355070;stroke-width:1;"/></g><g class="link" data-entity-1="ent0005" data-entity-2="ent0007" data-link-type="dependency" id="lnk14"><polygon fill="#355070" points="97.5725,881.1554,105.6665,875.5439,100.1704,876.8833,98.8311,871.3872,97.5725,881.1554" style="stroke:#355070;stroke-width:1;"/><path d="M119.847,844.5262 C111.6405,858.0213 106.9505,865.7338 100.69,876.0288" fill="none" style="stroke:#355070;stroke-width:1;"/></g><g class="link" data-entity-1="ent0005" data-entity-2="ent0008" data-link-type="dependency" id="lnk15"><polygon fill="#355070" points="233.3983,881.1554,233.112,871.3107,231.2357,876.6473,225.8991,874.7709,233.3983,881.1554" style="stroke:#355070;stroke-width:1;"/><path d="M215.8262,844.5262 C222.3002,858.0213 225.8643,865.4506 230.8031,875.7457" fill="none" style="stroke:#355070;stroke-width:1;"/></g><g class="link" data-entity-1="ent0006" data-entity-2="ent0009" data-link-type="dependency" id="lnk16"><polygon fill="#355070" points="420.9773,881.182,418.226,871.7253,417.7511,877.3622,412.1142,876.8873,420.9773,881.182" style="stroke:#355070;stroke-width:1;"/><path d="M376.5353,828.5626 C392.6484,847.6406 405.02,862.2885 417.1058,876.5982" fill="none" style="stroke:#355070;stroke-width:1;"/></g><g class="link" data-entity-1="ent0006" data-entity-2="ent0008" data-link-type="dependency" id="lnk17"><polygon fill="#355070" points="255.5889,881.182,263.0881,874.7976,257.7515,876.6739,255.8752,871.3373,255.5889,881.182" style="stroke:#355070;stroke-width:1;"/><path d="M280.832,828.5626 C271.6797,847.6406 265.0488,861.4627 258.1841,875.7723" fill="none" style="stroke:#355070;stroke-width:1;"/></g><?plantuml-src ZLFBRjim4BphAzZqLi1k-WXIv530Tc2qFRH53UHI5CAQN4ki9LBWhkmuGVyz9FKm7UTGNOJP7UtE3AbNZOEY1b71mROig4O60nbhhb3yGf8jYZkjq8gPWUhmW4vCn2sm9N4G19LMG5b6MsqQS52BDSXjuMnhrC9MredNo_Wa32f1sRqsXTX0HPXqP0L4CsQdrotZLsdDIZ-Wk4meYq2PMwVGzVC_N5rTNfzJpcHSBsVBHKAREMVtfpEoA43CccPXpKONuZ4JmlDRpXlWqWCVKK1AEm_MmBBCoKlqe6ZQF7X7etgaSASbvZfWXu6MxxMAOnfd9HBv35ugbQYBadsDP8cghT3bjLLX2PT-K6ahHTc_GUqygFY2u1E9Ued1SRxn5iCNyPrB7mIFQ5ZPeN7RVuhQDCdoPHZnCzZck3nYVslQYeDd__95XOoIjJMZZjkXChVtlz-z__Jdo7a-l1_sEEhLHk6zHtlhjZuP1sRxGk0DsgOw6dS-dxocQ0bxLnq-YklRe-CwaP8AZbg2WaDGqISrnYF3pL5eP4W_VXm4ZOCkEXDTDZILjBiGG6AnkXi8rDOrkCFqBraJUzzMFxuFJJ36CZ2gl3CuhPkFRwUmqv4P_zCiEzxVoUJpoVsuwUGLhVC_l6MaBEq6TdgWDo4DrKhiZzB_jfIbX3UJINf8PxqqjImzpR0fM7vUYrPFiWxLpjPPEP2V0000?></g></svg>