<svg xmlns="http://www.w3.org/2000/svg" xmlns:xlink="http://www.w3.org/1999/xlink" contentStyleType="text/css" data-diagram-type="DESCRIPTION" height="324px" preserveAspectRatio="none" style="width:772px;height:324px;background:#FFFFFF;" version="1.1" viewBox="0 0 772 324" width="772px" zoomAndPan="magnify"><?plantuml 1.2026.3?><defs/><g><g class="title" data-source-line="2"><text fill="#000000" font-family="sans-serif" font-size="14" font-weight="700" lengthAdjust="spacing" textLength="488.7695" x="138.1152" y="22.9951">Rescue Video Analyzer - Despliegue en una maquina o cluster</text></g><!--cluster Node0--><g class="cluster" data-qualified-name="Node0" data-source-line="11" id="ent0002"><polygon fill="#F7FAFC" points="14,122.2969,24,112.2969,320,112.2969,320,306.2969,310,316.2969,14,316.2969,14,122.2969" style="stroke:#355070;stroke-width:1;"/><line style="stroke:#355070;stroke-width:1;" x1="310" x2="320" y1="122.2969" y2="112.2969"/><line style="stroke:#355070;stroke-width:1;" x1="14" x2="310" y1="122.2969" y2="122.2969"/><line style="stroke:#355070;stroke-width:1;" x1="310" x2="310" y1="122.2969" y2="316.2969"/><text fill="#000000" font-family="sans-serif" font-size="14" font-weight="700" lengthAdjust="spacing" textLength="110.9268" x="107.5366" y="138.292">Nodo maestro</text></g><!--cluster Node1--><g class="cluster" data-qualified-name="Node1" data-source-line="18" id="ent0007"><polygon fill="#F7FAFC" points="328,122.2969,338,112.2969,764,112.2969,764,306.2969,754,316.2969,328,316.2969,328,122.2969" style="stroke:#355070;stroke-width:1;"/><line style="stroke:#355070;stroke-width:1;" x1="754" x2="764" y1="122.2969" y2="112.2969"/><line style="stroke:#355070;stroke-width:1;" x1="328" x2="754" y1="122.2969" y2="122.2969"/><line style="stroke:#355070;stroke-width:1;" x1="754" x2="754" y1="122.2969" y2="316.2969"/><text fill="#000000" font-family="sans-serif" font-size="14" font-weight="700" lengthAdjust="spacing" textLength="172.457" x="455.7715" y="138.292">Nodo worker opcional</text></g><!--entity MPI--><g class="entity" data-qualified-name="MPI" data-source-line="24" id="ent0011"><path d="M203.4539,49.8538 C206.7824,42.7853 212.9507,43.2462 216.7403,49.3901 C220.5456,42.8473 226.196,42.3645 229.8773,49.509 C234.7693,42.6621 239.2673,43.6296 243.2607,50.3927 C246.5994,44.7719 251.9628,45.117 255.663,49.9644 C258.7735,44.1942 265.0465,43.2121 269.0214,48.962 C272.8663,43.2535 277.6023,43.54 281.1128,49.3141 C285.6267,43.401 290.6381,43.0025 294.2279,50.2359 C298.2646,43.5937 303.6124,44.6729 307.5873,50.3031 C311.1558,43.7724 317.345,42.1933 321.7338,49.4623 C326.0954,44.2137 331.452,43.9429 334.2175,51.0721 C338.7183,54.1513 338.5617,58.7652 334.0172,61.6737 C341.1516,65.0736 341.1988,69.8198 335.5636,74.7319 C339.3133,78.1998 338.8083,81.8554 334.4777,84.4174 C339.9932,88.1719 339.1269,93.0013 333.7789,96.1063 C330.8857,101.9183 324.9213,102.6586 321.3014,96.8892 C317.0912,102.6109 313.1157,104.378 308.3476,97.461 C304.8787,104.927 300.5983,106.1374 294.752,99.8031 C291.4699,105.447 285.3394,105.2046 281.8678,100.0288 C277.7007,106.1231 273.7991,106.1766 269.6626,99.9985 C265.1841,105.9185 259.2647,105.2665 255.6278,99.0271 C252.1718,104.6602 245.8992,104.8922 242.0267,99.5429 C238.809,104.5498 233.6009,105.0631 230.9771,98.9526 C225.6959,105.8471 220.9932,104.1317 217.0417,97.5751 C212.9901,103.849 207.6751,101.6751 204.7509,96.3777 C198.3121,95.4843 195.7015,90.3582 200.2265,85.0759 C193.0968,82.9532 191.9679,78.7502 196.497,73.0206 C193.1145,68.1218 194.6658,63.8194 200.4111,62.2322 C195.0005,57.4001 196.6892,51.6929 203.4539,49.8538" fill="#F1F1F1" style="stroke:#181818;stroke-width:0.5;"/><text fill="#000000" font-family="sans-serif" font-size="14" lengthAdjust="spacing" textLength="62.043" x="210" y="69.292">OpenMPI</text><text fill="#000000" font-family="sans-serif" font-size="14" lengthAdjust="spacing" textLength="116.0469" x="210" y="85.5889">TCP/SSH/hostfile</text></g><!--entity R0--><g class="entity" data-qualified-name="Node0.R0" data-source-line="12" id="ent0003"><rect fill="#F8F4FA" height="55.5938" rx="2.5" ry="2.5" style="stroke:#6D597A;stroke-width:0.5;" width="87.9346" x="224" y="144.2969"/><polygon fill="#F8F4FA" points="294.9346,149.2969,294.9346,163.2969,306.9346,163.2969,306.9346,155.2969,300.9346,149.2969,294.9346,149.2969" style="stroke:#6D597A;stroke-width:0.5;"/><line style="stroke:#6D597A;stroke-width:0.5;" x1="300.9346" x2="300.9346" y1="149.2969" y2="155.2969"/><line style="stroke:#6D597A;stroke-width:0.5;" x1="306.9346" x2="300.9346" y1="155.2969" y2="155.2969"/><text fill="#000000" font-family="sans-serif" font-size="14" lengthAdjust="spacing" textLength="44.6729" x="234" y="170.292">rank 0</text><text fill="#000000" font-family="sans-serif" font-size="14" lengthAdjust="spacing" textLength="57.9346" x="234" y="186.5889">maestro</text></g><!--entity Files0--><g class="entity" data-qualified-name="Node0.Files0" data-source-line="13" id="ent0004"><rect fill="#F8F4FA" height="71.8906" rx="2.5" ry="2.5" style="stroke:#6D597A;stroke-width:0.5;" width="87.6475" x="211" y="236.2969"/><polygon fill="#F8F4FA" points="281.6475,241.2969,281.6475,255.2969,293.6475,255.2969,293.6475,247.2969,287.6475,241.2969,281.6475,241.2969" style="stroke:#6D597A;stroke-width:0.5;"/><line style="stroke:#6D597A;stroke-width:0.5;" x1="287.6475" x2="287.6475" y1="241.2969" y2="247.2969"/><line style="stroke:#6D597A;stroke-width:0.5;" x1="293.6475" x2="287.6475" y1="247.2969" y2="247.2969"/><text fill="#000000" font-family="sans-serif" font-size="14" lengthAdjust="spacing" textLength="57.6475" x="221" y="262.292">dataset/</text><text fill="#000000" font-family="sans-serif" font-size="14" lengthAdjust="spacing" textLength="55.6035" x="221" y="278.5889">models/</text><text fill="#000000" font-family="sans-serif" font-size="14" lengthAdjust="spacing" textLength="50.8936" x="221" y="294.8857">output/</text></g><!--entity GPU0--><g class="entity" data-qualified-name="Node0.GPU0" data-source-line="14" id="ent0005"><polygon fill="#F7FAFC" points="48,259.2969,58,249.2969,180.0938,249.2969,180.0938,285.5938,170.0938,295.5938,48,295.5938,48,259.2969" style="stroke:#355070;stroke-width:0.5;"/><line style="stroke:#355070;stroke-width:0.5;" x1="170.0938" x2="180.0938" y1="259.2969" y2="249.2969"/><line style="stroke:#355070;stroke-width:0.5;" x1="48" x2="170.0938" y1="259.2969" y2="259.2969"/><line style="stroke:#355070;stroke-width:0.5;" x1="170.0938" x2="170.0938" y1="259.2969" y2="295.5938"/><text fill="#000000" font-family="sans-serif" font-size="14" lengthAdjust="spacing" textLength="92.0938" x="63" y="282.292">GPU visible 0</text></g><!--entity R1--><g class="entity" data-qualified-name="Node0.R1" data-source-line="15" id="ent0006"><rect fill="#F8F4FA" height="55.5938" rx="2.5" ry="2.5" style="stroke:#6D597A;stroke-width:0.5;" width="182.7627" x="22.5" y="144.2969"/><polygon fill="#F8F4FA" points="188.2627,149.2969,188.2627,163.2969,200.2627,163.2969,200.2627,155.2969,194.2627,149.2969,188.2627,149.2969" style="stroke:#6D597A;stroke-width:0.5;"/><line style="stroke:#6D597A;stroke-width:0.5;" x1="194.2627" x2="194.2627" y1="149.2969" y2="155.2969"/><line style="stroke:#6D597A;stroke-width:0.5;" x1="200.2627" x2="194.2627" y1="155.2969" y2="155.2969"/><text fill="#000000" font-family="sans-serif" font-size="14" lengthAdjust="spacing" textLength="44.6729" x="32.5" y="170.292">rank 1</text><text fill="#000000" font-family="sans-serif" font-size="14" lengthAdjust="spacing" textLength="152.7627" x="32.5" y="186.5889">worker CUDA/OpenCL</text></g><!--entity R2--><g class="entity" data-qualified-name="Node1.R2" data-source-line="19" id="ent0008"><rect fill="#F8F4FA" height="55.5938" rx="2.5" ry="2.5" style="stroke:#6D597A;stroke-width:0.5;" width="182.7627" x="336.5" y="144.2969"/><polygon fill="#F8F4FA" points="502.2627,149.2969,502.2627,163.2969,514.2627,163.2969,514.2627,155.2969,508.2627,149.2969,502.2627,149.2969" style="stroke:#6D597A;stroke-width:0.5;"/><line style="stroke:#6D597A;stroke-width:0.5;" x1="508.2627" x2="508.2627" y1="149.2969" y2="155.2969"/><line style="stroke:#6D597A;stroke-width:0.5;" x1="514.2627" x2="508.2627" y1="155.2969" y2="155.2969"/><text fill="#000000" font-family="sans-serif" font-size="14" lengthAdjust="spacing" textLength="44.6729" x="346.5" y="170.292">rank 2</text><text fill="#000000" font-family="sans-serif" font-size="14" lengthAdjust="spacing" textLength="152.7627" x="346.5" y="186.5889">worker CUDA/OpenCL</text></g><!--entity GPU1--><g class="entity" data-qualified-name="Node1.GPU1" data-source-line="20" id="ent0009"><polygon fill="#F7FAFC" points="336.5,259.2969,346.5,249.2969,489.5732,249.2969,489.5732,285.5938,479.5732,295.5938,336.5,295.5938,336.5,259.2969" style="stroke:#355070;stroke-width:0.5;"/><line style="stroke:#355070;stroke-width:0.5;" x1="479.5732" x2="489.5732" y1="259.2969" y2="249.2969"/><line style="stroke:#355070;stroke-width:0.5;" x1="336.5" x2="479.5732" y1="259.2969" y2="259.2969"/><line style="stroke:#355070;stroke-width:0.5;" x1="479.5732" x2="479.5732" y1="259.2969" y2="295.5938"/><text fill="#000000" font-family="sans-serif" font-size="14" lengthAdjust="spacing" textLength="113.0732" x="351.5" y="282.292">GPU visible 0..M</text></g><!--entity Files1--><g class="entity" data-qualified-name="Node1.Files1" data-source-line="21" id="ent0010"><rect fill="#F8F4FA" height="71.8906" rx="2.5" ry="2.5" style="stroke:#6D597A;stroke-width:0.5;" width="247.6768" x="508" y="236.2969"/><polygon fill="#F8F4FA" points="738.6768,241.2969,738.6768,255.2969,750.6768,255.2969,750.6768,247.2969,744.6768,241.2969,738.6768,241.2969" style="stroke:#6D597A;stroke-width:0.5;"/><line style="stroke:#6D597A;stroke-width:0.5;" x1="744.6768" x2="744.6768" y1="241.2969" y2="247.2969"/><line style="stroke:#6D597A;stroke-width:0.5;" x1="750.6768" x2="744.6768" y1="247.2969" y2="247.2969"/><text fill="#000000" font-family="sans-serif" font-size="14" lengthAdjust="spacing" textLength="57.6475" x="518" y="262.292">dataset/</text><text fill="#000000" font-family="sans-serif" font-size="14" lengthAdjust="spacing" textLength="55.6035" x="518" y="278.5889">models/</text><text fill="#000000" font-family="sans-serif" font-size="14" lengthAdjust="spacing" textLength="217.6768" x="518" y="294.8857">accesibles por ruta compartida</text></g><g class="link" data-entity-1="ent0003" data-entity-2="ent0011" data-link-type="association" id="lnk12"><path d="M268,144.1235 C268,131.7748 268,117.112 268,104.379" fill="none" style="stroke:#181818;stroke-width:1;"/></g><g class="link" data-entity-1="ent0011" data-entity-2="ent0006" data-link-type="association" id="lnk13"><path d="M219.696,104.379 C199.496,117.1679 176.2215,131.9034 156.6635,144.2859" fill="none" style="stroke:#181818;stroke-width:1;"/></g><g class="link" data-entity-1="ent0011" data-entity-2="ent0008" data-link-type="association" id="lnk14"><path d="M318.186,104.379 C339.1729,117.1679 363.3543,131.9034 383.6742,144.2859" fill="none" style="stroke:#181818;stroke-width:1;"/></g><g class="link" data-entity-1="ent0006" data-entity-2="ent0005" data-link-type="association" id="lnk15"><path d="M114,200.3352 C114,215.7454 114,234.8095 114,249.2961" fill="none" style="stroke:#181818;stroke-width:1;"/></g><g class="link" data-entity-1="ent0008" data-entity-2="ent0009" data-link-type="association" id="lnk16"><path d="M423.8615,200.3352 C421.5028,215.7454 418.5848,234.8095 416.3675,249.2961" fill="none" style="stroke:#181818;stroke-width:1;"/></g><g class="link" data-entity-1="ent0003" data-entity-2="ent0004" data-link-type="association" id="lnk17"><path d="M264.4133,200.3352 C262.9402,211.4396 261.2155,224.4413 259.6477,236.2604" fill="none" style="stroke:#181818;stroke-width:1;"/></g><g class="link" data-entity-1="ent0006" data-entity-2="ent0004" data-link-type="association" id="lnk18"><path d="M152.9021,200.3352 C170.8352,212.7994 192.2075,227.6539 210.7524,240.5433" fill="none" style="stroke:#181818;stroke-width:1;"/></g><g class="link" data-entity-1="ent0008" data-entity-2="ent0010" data-link-type="association" id="lnk19"><path d="M484.2839,200.3352 C507.3992,211.4396 534.464,224.4413 559.0669,236.2604" fill="none" style="stroke:#181818;stroke-width:1;"/></g><?plantuml-src XP5DZzCm48Rl_XL3ENVp0QNiCQGA8B5GPLbElSpQqwvLnnDiXzM2-EyuQLhQRH6HhBpsFFFzedMuQH0CFd4Nm3SKqA88EXY2chpi2BvfHGo5HVFqannCOK6-DPesqKOMEelGuFTEnp-3D9qFv8JmMsrRTDZ0FShjnd5dLSc67RoiXk-8y0-e-57R3QpHU3goM5RqZfqYD_g-citIUVgSECimhuggFABG1Rr66KvYlLdChkV59UeitjlgTLK8qIU3oMTM75ic7nnF03t41qhXbu1319Wuj5j8L_QOgzCJH650Jo69K0nWV1Hn2MqNae6kj27VU-oolb_UmG_jzNtSJ3e0yIKzpvcjx2ExRTnKURSeaYyjsVBJBdqcVf_qC7BSIirnlOTUiakzvF-EcrykykhgPbzdzh_6KKeQt3oqSUAk2mYIcxPtKlXt7aCBqd2dODANSBFykB9VosLoU_iXUM0Vrf4Qy6WHeavXEXraFBsCCzYhNDHPBuOnrlaeiz5ddFuEsL_omoNx0m00?></g></svg>